<?xml version="1.0" encoding="utf-8"?>
<!-- Generator: Adobe Illustrator 24.0.1, SVG Export Plug-In . SVG Version: 6.00 Build 0)  -->
<svg version="1.1" xmlns="http://www.w3.org/2000/svg" xmlns:xlink="http://www.w3.org/1999/xlink" x="0px" y="0px"
	 viewBox="0 0 395 128" style="enable-background:new 0 0 395 128;" xml:space="preserve">
<style type="text/css">
	.st0{fill:#EDEDED;}
	.st1{fill:#777676;}
	.st2{fill:#F42A2A;}
</style>
<g id="Layer_3">
	<g>
		<image style="overflow:visible;opacity:0.25;" width="395" height="128" xlink:href="1B67B72A.png" >
		</image>
		<g>
			
				<rect x="30.9" y="31" transform="matrix(1 -5.248697e-03 5.248697e-03 1 -0.3332 1.0372)" class="st0" width="333" height="65.9"/>
		</g>
	</g>
	<g>
		<path class="st1" d="M159.4,118.7l-0.3,0V110h0.9v2.9c0.6-0.3,1.2-0.4,1.8-0.4c0.5,0,0.9,0.1,1.2,0.3c0.3,0.2,0.5,0.5,0.7,1
			c0.1,0.4,0.2,1,0.2,1.8c0,0.8-0.1,1.5-0.3,1.9c-0.2,0.4-0.5,0.8-0.9,1c-0.4,0.2-1,0.3-1.7,0.3C160.5,118.7,160,118.7,159.4,118.7z
			 M162.3,117.7c0.3-0.2,0.5-0.4,0.6-0.7s0.2-0.8,0.2-1.4c0-0.6,0-1-0.1-1.3c-0.1-0.3-0.2-0.6-0.4-0.7c-0.2-0.1-0.5-0.2-0.8-0.2
			c-0.4,0-1,0.1-1.6,0.3v4.2c0.6,0,1,0.1,1.2,0.1C161.6,117.9,162,117.9,162.3,117.7z"/>
		<path class="st1" d="M166.1,118.5c-0.3-0.2-0.5-0.5-0.6-0.9c-0.1-0.4-0.2-1-0.2-1.8v-3.1h0.9v3.1c0,0.6,0,1.1,0.1,1.4
			c0.1,0.3,0.2,0.5,0.3,0.6s0.4,0.2,0.8,0.2c0.5,0,1.1-0.1,1.7-0.4v-4.9h0.9v6h-0.9v-0.4c-0.3,0.2-0.6,0.3-0.9,0.4
			c-0.3,0.1-0.6,0.1-1,0.1C166.8,118.7,166.4,118.7,166.1,118.5z"/>
		<path class="st1" d="M171.8,110.2h0.9v1h-0.9V110.2z M171.8,112.6h0.9v6h-0.9V112.6z"/>
		<path class="st1" d="M174.4,110h0.9v8.6h-0.9V110z"/>
		<path class="st1" d="M177.9,118.6c-0.2-0.1-0.4-0.4-0.5-0.7c-0.1-0.3-0.2-0.8-0.2-1.3v-3.2h-0.9v-0.8h0.9v-1.8h0.9v1.8h1.9v0.8
			h-1.9v2.9c0,0.4,0,0.8,0,1c0,0.2,0.1,0.4,0.2,0.5c0.1,0.1,0.3,0.2,0.6,0.2l1.1-0.1l0.1,0.7c-0.6,0.1-1,0.1-1.3,0.1
			C178.5,118.8,178.2,118.7,177.9,118.6z"/>
		<path class="st1" d="M183.3,112.6h0.9l1.2,5.2h0.2l1.4-5.1h0.9l1.4,5.1h0.2l1.2-5.2h0.9l-1.4,6h-1.5l-1.3-4.7l-1.3,4.7h-1.5
			L183.3,112.6z"/>
		<path class="st1" d="M193,110.2h0.9v1H193V110.2z M193,112.6h0.9v6H193V112.6z"/>
		<path class="st1" d="M196.4,118.6c-0.2-0.1-0.4-0.4-0.5-0.7c-0.1-0.3-0.2-0.8-0.2-1.3v-3.2h-0.9v-0.8h0.9v-1.8h0.9v1.8h1.9v0.8
			h-1.9v2.9c0,0.4,0,0.8,0,1c0,0.2,0.1,0.4,0.2,0.5c0.1,0.1,0.3,0.2,0.6,0.2l1.1-0.1l0.1,0.7c-0.6,0.1-1,0.1-1.3,0.1
			C196.9,118.8,196.6,118.7,196.4,118.6z"/>
		<path class="st1" d="M199.6,110h0.9v3c0.4-0.2,0.7-0.3,1-0.3c0.3-0.1,0.6-0.1,0.9-0.1c0.5,0,0.9,0.1,1.2,0.3
			c0.3,0.2,0.5,0.5,0.6,0.9c0.1,0.4,0.2,1,0.2,1.8v3.2h-0.9v-3.1c0-0.6,0-1-0.1-1.3c-0.1-0.3-0.2-0.5-0.4-0.6s-0.5-0.2-0.8-0.2
			c-0.5,0-0.9,0.1-1.4,0.3l-0.2,0.1v5h-0.9V110z"/>
		<path class="st1" d="M208.7,110.5h3.2c1.9,0,2.9,0.9,2.9,2.7c0,1.1-0.4,1.8-1.2,2.4l1.2,3.1h-1.8l-0.9-2.7h-1.6v2.7h-1.7V110.5z
			 M211.9,114.5c0.4,0,0.7-0.1,0.9-0.4c0.2-0.2,0.3-0.6,0.3-1s-0.1-0.7-0.3-0.9c-0.2-0.2-0.5-0.3-0.9-0.3h-1.5v2.6H211.9z"/>
		<path class="st1" d="M216.2,118.1c-0.4-0.5-0.6-1.2-0.6-2.3c0-1.1,0.2-1.9,0.7-2.5s1.1-0.8,2-0.8c0.8,0,1.5,0.2,1.9,0.7
			s0.7,1.1,0.7,2l-0.1,1.1h-3.5c0,0.3,0.1,0.5,0.1,0.6s0.2,0.3,0.4,0.3c0.2,0.1,0.4,0.1,0.8,0.1c0.3,0,0.6,0,0.9,0
			c0.4,0,0.6,0,0.8,0l0.3,0l0,1.2c-0.9,0.2-1.7,0.3-2.4,0.3C217.3,118.8,216.7,118.5,216.2,118.1z M219.3,115.1c0-0.5-0.1-0.8-0.2-1
			c-0.1-0.2-0.4-0.3-0.8-0.3c-0.4,0-0.7,0.1-0.8,0.3c-0.2,0.2-0.2,0.5-0.3,1H219.3z"/>
		<path class="st1" d="M221.6,116.8c0-0.6,0.2-1.1,0.5-1.3c0.3-0.3,0.9-0.4,1.6-0.5l1.3-0.1v-0.4c0-0.2-0.1-0.4-0.2-0.5
			c-0.1-0.1-0.3-0.1-0.5-0.1c-0.3,0-0.6,0-1.1,0c-0.5,0-0.9,0-1.2,0.1l0-1.1c0.9-0.2,1.7-0.3,2.4-0.3s1.3,0.2,1.7,0.5
			c0.3,0.3,0.5,0.8,0.5,1.5v2.5c0,0.2,0,0.3,0.1,0.4c0.1,0.1,0.1,0.1,0.3,0.2l0,1.2c-0.4,0-0.7,0-1-0.1c-0.2-0.1-0.5-0.2-0.7-0.3
			c-0.6,0.3-1.2,0.4-1.8,0.4C222.3,118.8,221.6,118.1,221.6,116.8z M224.8,117.3l0.2,0V116l-1.1,0.1c-0.4,0-0.7,0.3-0.7,0.7
			c0,0.4,0.2,0.7,0.6,0.7C224.2,117.5,224.5,117.4,224.8,117.3z"/>
		<path class="st1" d="M228.5,118c-0.4-0.5-0.6-1.3-0.6-2.4c0-1.1,0.2-1.9,0.6-2.4c0.4-0.5,1.1-0.7,2-0.7c0.2,0,0.5,0,0.8,0.1
			c0.3,0,0.7,0.1,1.1,0.2l0,1.3c-0.7-0.1-1.2-0.1-1.4-0.1c-0.4,0-0.6,0-0.8,0.2c-0.2,0.1-0.3,0.3-0.4,0.5c-0.1,0.2-0.1,0.6-0.1,1
			c0,0.5,0,0.8,0.1,1c0.1,0.2,0.2,0.4,0.4,0.5c0.2,0.1,0.5,0.2,0.9,0.2l1.4-0.1l0,1.3c-0.8,0.2-1.5,0.3-2,0.3
			C229.5,118.8,228.9,118.5,228.5,118z"/>
		<path class="st1" d="M234.5,118.6c-0.3-0.1-0.4-0.4-0.6-0.7c-0.1-0.3-0.2-0.8-0.2-1.4V114h-0.7v-1.4h0.7V111h1.6v1.7h1.5v1.4h-1.5
			v2.5c0,0.3,0,0.5,0.1,0.7c0.1,0.1,0.2,0.2,0.4,0.2l0.9,0l0.1,1.3c-0.3,0.1-0.6,0.1-0.8,0.1c-0.2,0-0.4,0-0.5,0
			C235.1,118.8,234.7,118.7,234.5,118.6z"/>
	</g>
</g>
<g id="Layer_1">
</g>
<g id="Layer_2">
	<g>
		<path class="st2" d="M51.4,66.8c1.2,1.3,2.3,2.2,3.4,2.8c1.1,0.6,2.2,0.9,3.4,0.9c1,0,1.7-0.2,2.3-0.7c0.6-0.5,0.9-1.1,0.9-1.9
			c0-1-1.2-2.2-3.5-3.4c-0.2-0.1-0.4-0.2-0.5-0.3c-2.3-1.2-3.8-2.3-4.6-3.4c-0.8-1.1-1.2-2.4-1.2-3.9c0-2.8,1-5.1,2.9-6.9
			s4.4-2.7,7.4-2.7c1.6,0,3.1,0.3,4.6,0.9s2.8,1.4,4.1,2.5l-3.3,5.6c-1-0.9-2-1.5-2.8-2s-1.6-0.6-2.3-0.7c-0.8,0-1.4,0.2-2,0.7
			c-0.5,0.4-0.8,1-0.8,1.6c0,0.8,1,1.7,2.9,2.7c0.7,0.4,1.2,0.6,1.6,0.9c2,1.1,3.4,2.2,4.2,3.4s1.2,2.6,1.2,4.3
			c0,3.1-1.1,5.5-3.2,7.3c-2.1,1.8-5,2.7-8.7,2.7c-1.9,0-3.7-0.4-5.4-1.2c-1.7-0.8-3.2-2-4.5-3.6L51.4,66.8z"/>
		<path class="st2" d="M74,57l6.9,0l-1.3,8.2c-0.2,1.1-0.3,2-0.4,2.7C79.1,68.6,79,69,79,69.3c0,0.9,0.2,1.7,0.7,2.2
			c0.4,0.5,1.1,0.7,2,0.7c2,0,3.4-2.3,4.1-6.8c0-0.2,0.1-0.4,0.1-0.6l1.3-7.8l6.9,0l-1.4,8.9l-0.1,0.4c-0.7,4.2-1.8,7.1-3.2,8.5
			c-0.9,0.9-2.1,1.5-3.4,2c-1.3,0.4-2.8,0.7-4.5,0.7c-2.9,0-5.2-0.7-6.9-2c-1.7-1.3-2.5-3.1-2.5-5.4c0-0.5,0-1.2,0.1-2
			c0.1-0.8,0.3-2,0.6-3.6L74,57z"/>
		<path class="st2" d="M94.5,85.4L99.1,57l6.6,0l-0.4,2.7c1-1.1,2-2,3.2-2.5c1.2-0.6,2.4-0.8,3.7-0.8c2.3,0,4.1,0.9,5.6,2.6
			s2.2,3.9,2.2,6.6c0,3.4-1,6.2-3,8.5c-2,2.2-4.4,3.4-7.4,3.4c-1.3,0-2.5-0.3-3.6-0.9s-2.1-1.4-3-2.6c0,0.6,0,1.2-0.1,1.7
			s-0.1,1-0.1,1.4l-1.3,8.4L94.5,85.4z M112.7,66.5c0-1.3-0.4-2.3-1.2-3c-0.8-0.8-1.8-1.2-3-1.2c-1.4,0-2.6,0.5-3.5,1.6
			c-0.9,1.1-1.4,2.4-1.4,4c0,1.2,0.4,2.2,1.1,3c0.8,0.8,1.8,1.1,3,1.1c1.4,0,2.6-0.5,3.5-1.5C112.3,69.4,112.7,68.1,112.7,66.5z"/>
		<path class="st2" d="M129.2,68.6l0,0.4c0,1.3,0.3,2.2,0.9,2.9c0.6,0.7,1.6,1,2.8,1c0.9,0,1.7-0.2,2.4-0.5s1.6-0.9,2.5-1.7l3.7,3.8
			c-1.1,1.1-2.4,1.9-3.9,2.4s-3.1,0.8-4.9,0.8c-3.2,0-5.7-0.9-7.5-2.6s-2.7-4.1-2.6-7.2c0-3.4,1.1-6.1,3.2-8.2
			c2.1-2.1,4.9-3.2,8.2-3.1c3,0,5.5,0.9,7.3,2.8c1.9,1.9,2.8,4.3,2.8,7.4c0,0.3,0,0.8-0.1,1.5c0,0.2,0,0.4-0.1,0.5L129.2,68.6z
			 M137.7,64.6c-0.1-1.1-0.4-1.9-1.1-2.5s-1.5-0.9-2.6-0.9c-1,0-1.8,0.3-2.6,0.9c-0.8,0.6-1.3,1.5-1.7,2.6L137.7,64.6z"/>
		<path class="st2" d="M146.1,76.9l3.2-19.7l6.7,0l-0.5,3.4c0.6-1.2,1.4-2.2,2.5-2.8s2.2-1,3.6-1c0.1,0,0.3,0,0.5,0
			c0.2,0,0.5,0.1,0.9,0.1l-1.4,6.2c-0.5-0.1-0.9-0.2-1.2-0.2c-0.4-0.1-0.7-0.1-1.1-0.1c-1.3,0-2.4,0.4-3.2,1.3
			c-0.8,0.8-1.3,2.1-1.6,3.9l-1.4,9L146.1,76.9z"/>
		<path class="st2" d="M163.1,76.9l3.2-19.7l7,0l-3.2,19.7L163.1,76.9z M166.8,51.3c0-1,0.4-1.9,1.1-2.6c0.7-0.7,1.6-1.1,2.6-1.1
			c1.1,0,2,0.4,2.7,1.1c0.7,0.7,1.1,1.6,1.1,2.7c0,1.1-0.4,1.9-1.1,2.7c-0.7,0.7-1.6,1.1-2.7,1.1c-1,0-1.9-0.4-2.6-1.1
			S166.8,52.4,166.8,51.3z"/>
		<path class="st2" d="M175.6,68c0-3.3,1.1-6.1,3.3-8.2c2.2-2.1,5-3.2,8.4-3.2c3.2,0,5.7,0.9,7.6,2.7s2.8,4.2,2.8,7.2
			c0,3.3-1.1,6-3.3,8.2s-5.1,3.2-8.6,3.2c-3.1,0-5.6-0.9-7.4-2.7C176.6,73.3,175.6,71,175.6,68z M187.2,62.2c-1.4,0-2.5,0.6-3.5,1.7
			c-0.9,1.1-1.4,2.5-1.4,4.2c0,1.2,0.3,2.2,1,2.9c0.7,0.7,1.6,1.1,2.8,1.1c1.4,0,2.6-0.5,3.6-1.6c0.9-1.1,1.4-2.5,1.4-4.2
			c0-1.2-0.3-2.2-1-2.9C189.3,62.6,188.4,62.3,187.2,62.2z"/>
		<path class="st2" d="M199.8,77l3.2-19.7l6.7,0l-0.5,3.4c0.6-1.2,1.4-2.2,2.5-2.8c1-0.6,2.2-1,3.6-1c0.1,0,0.3,0,0.5,0
			c0.2,0,0.5,0.1,0.9,0.1l-1.4,6.2c-0.5-0.1-0.9-0.2-1.2-0.2c-0.4-0.1-0.7-0.1-1.1-0.1c-1.3,0-2.4,0.4-3.2,1.3
			c-0.8,0.8-1.3,2.1-1.6,3.9l-1.4,9L199.8,77z"/>
		<path class="st2" d="M229.3,77.1l4.6-28.6l16.5,0l-1.1,6.6l-8.9,0l-0.8,4.7l8.3,0l-1,6.2l-8.3,0L237,77.1L229.3,77.1z"/>
		<path class="st2" d="M250.7,68.2c0-3.3,1.1-6.1,3.3-8.2c2.2-2.1,5-3.2,8.4-3.2c3.2,0,5.7,0.9,7.6,2.7s2.8,4.2,2.8,7.2
			c0,3.3-1.1,6-3.3,8.2s-5.1,3.2-8.6,3.2c-3.1,0-5.6-0.9-7.4-2.7C251.6,73.5,250.7,71.2,250.7,68.2z M262.3,62.4
			c-1.4,0-2.5,0.6-3.5,1.7c-0.9,1.1-1.4,2.5-1.4,4.2c0,1.2,0.3,2.2,1,2.9c0.7,0.7,1.6,1.1,2.8,1.1c1.4,0,2.6-0.5,3.6-1.6
			c0.9-1.1,1.4-2.5,1.4-4.2c0-1.2-0.3-2.2-1-2.9C264.4,62.8,263.5,62.4,262.3,62.4z"/>
		<path class="st2" d="M274.9,77.2l3.2-19.7l6.7,0l-0.5,3.4c0.6-1.2,1.4-2.2,2.5-2.8c1-0.6,2.2-1,3.6-1c0.1,0,0.3,0,0.5,0
			c0.2,0,0.5,0.1,0.9,0.1l-1.4,6.2c-0.5-0.1-0.9-0.2-1.2-0.2c-0.4-0.1-0.7-0.1-1.1-0.1c-1.3,0-2.4,0.4-3.2,1.3
			c-0.8,0.8-1.3,2.1-1.6,3.9l-1.4,9L274.9,77.2z"/>
		<path class="st2" d="M291.6,77.2l3.2-19.7l6.1,0l-0.4,3.3c1-1.3,2-2.3,3-3s2.2-0.9,3.5-0.9c1.5,0,2.7,0.3,3.6,0.9
			c0.9,0.6,1.7,1.6,2.3,2.9c1-1.3,2-2.3,3.1-2.9c1-0.6,2.2-0.9,3.4-0.9c2,0,3.5,0.6,4.6,1.7c1,1.1,1.6,2.7,1.6,4.8
			c0,0.5,0,1.1-0.1,1.7c-0.1,0.6-0.1,1.2-0.3,1.8l-1.7,10.3l-6.5,0l1.7-10.4c0-0.2,0-0.3,0.1-0.5c0-0.2,0-0.4,0-0.7
			c0-1-0.2-1.8-0.6-2.3c-0.4-0.5-1.1-0.8-1.9-0.8c-1.1,0-2,0.4-2.6,1.3c-0.6,0.8-1.1,2.3-1.4,4.3l-1.4,9.2l-6.5,0l1.7-10.4
			c0-0.1,0-0.1,0-0.2c0.1-0.6,0.1-1.1,0.1-1.3c0-0.9-0.2-1.5-0.6-2c-0.4-0.5-1.1-0.7-1.9-0.7c-1.1,0-2,0.4-2.6,1.2
			c-0.6,0.8-1.1,2.2-1.4,4.3l-1.5,9.2L291.6,77.2z"/>
		<path class="st2" d="M344.7,59.1l-2,4.4c-0.9-0.6-1.7-1.1-2.5-1.4s-1.5-0.4-2.2-0.4c-0.6,0-1.1,0.1-1.6,0.4
			c-0.4,0.3-0.6,0.6-0.6,1.1c0,0.6,0.7,1.2,2,1.7c0.6,0.2,1.1,0.4,1.4,0.6c1.9,0.8,3.2,1.7,4,2.6c0.8,0.9,1.1,2,1.1,3.3
			c0,2.1-0.8,3.7-2.4,5c-1.6,1.3-3.7,1.9-6.4,1.9c-1.5,0-3-0.2-4.3-0.6c-1.4-0.4-2.7-1-4-1.8l2.3-4.7c1.3,0.8,2.4,1.4,3.3,1.7
			c0.9,0.3,1.7,0.5,2.5,0.5c0.7,0,1.2-0.2,1.7-0.5s0.6-0.7,0.6-1.2c0-0.7-1-1.5-2.9-2.3c-0.6-0.2-1-0.4-1.3-0.5
			c-1.5-0.7-2.6-1.4-3.2-2.2c-0.6-0.8-1-1.8-0.9-3c0-1.9,0.8-3.5,2.4-4.7c1.6-1.2,3.6-1.9,6.1-1.9c1.3,0,2.5,0.2,3.7,0.5
			S343.6,58.4,344.7,59.1z"/>
	</g>
	<g>
	</g>
	<g>
	</g>
	<g>
	</g>
	<g>
	</g>
	<g>
	</g>
	<g>
	</g>
	<g>
	</g>
	<g>
	</g>
	<g>
	</g>
	<g>
	</g>
	<g>
	</g>
	<g>
	</g>
	<g>
	</g>
	<g>
	</g>
	<g>
	</g>
</g>
</svg>
